<?xml version="1.0" standalone="no"?>
<!DOCTYPE svg PUBLIC "-//W3C//DTD SVG 20010904//EN"
 "http://www.w3.org/TR/2001/REC-SVG-20010904/DTD/svg10.dtd">
<svg version="1.0" xmlns="http://www.w3.org/2000/svg"
 width="120.000000pt" height="120.000000pt" viewBox="0 0 120.000000 120.000000"
 preserveAspectRatio="xMidYMid meet">
<g transform="translate(0.000000,120.000000) scale(0.100000,-0.100000)"
fill="#000000" stroke="none">
<path d="M35 730 c-13 -26 -14 -37 -4 -65 12 -31 28 -45 72 -59 23 -8 18 -40
-7 -44 -11 -2 -23 3 -28 12 -24 42 -62 -10 -38 -53 15 -30 104 -31 120 -1 6
11 15 20 19 20 5 0 11 -9 14 -20 4 -15 14 -20 37 -20 40 0 36 -23 -6 -30 -23
-4 -30 -11 -32 -33 -3 -26 -1 -27 41 -27 36 0 48 5 61 25 9 13 16 33 16 45 0
17 6 20 49 20 39 0 51 4 63 22 l15 22 12 -22 c10 -19 20 -22 76 -22 l65 0 0
51 c0 49 1 50 27 47 21 -2 34 -14 52 -46 13 -24 30 -46 38 -49 18 -7 52 32 53
59 0 9 4 18 9 20 5 2 12 20 16 41 7 35 6 37 -18 37 -19 0 -28 -8 -40 -37 l-15
-38 -11 28 c-6 16 -11 33 -11 38 0 5 -48 9 -109 9 -100 0 -111 -2 -125 -21
l-14 -21 -4 23 c-2 15 -14 26 -35 33 -49 17 -50 26 -5 26 34 0 42 4 42 18 0
30 -21 42 -75 42 -46 0 -53 -3 -63 -25 -7 -14 -12 -35 -12 -45 0 -15 -7 -20
-27 -20 -49 0 -73 -11 -74 -34 -1 -20 -2 -20 -6 -1 -8 32 -24 45 -54 45 -16 0
-29 5 -29 10 0 6 18 10 40 10 38 0 40 2 40 30 0 30 0 30 -60 30 -56 0 -60 -2
-75 -30z m125 -5 c0 -11 -12 -15 -46 -15 -38 0 -45 -3 -42 -17 2 -11 14 -19
30 -21 31 -4 58 -35 58 -68 0 -12 -7 -38 -15 -58 -14 -33 -19 -36 -54 -36 -39
0 -51 11 -51 48 0 12 3 13 12 4 19 -19 66 -15 78 7 17 32 12 41 -34 61 -47 20
-62 45 -52 86 6 22 12 24 61 24 42 0 55 -3 55 -15z m260 1 c0 -11 -14 -16 -47
-18 -35 -2 -48 -7 -48 -18 0 -9 12 -16 30 -18 17 -2 35 -8 42 -14 23 -18 26
-68 7 -110 -17 -37 -19 -39 -58 -36 -39 3 -41 5 -44 38 -2 28 0 32 8 18 14
-23 66 -24 74 -2 14 36 6 52 -30 64 -40 14 -60 46 -50 84 6 24 11 26 61 26 41
0 55 -4 55 -14z m-130 -143 c-1 -38 -1 -80 -1 -96 0 -15 -7 -36 -16 -47 -21
-24 -73 -27 -73 -5 0 8 8 15 18 15 25 0 42 19 42 47 0 19 -4 22 -27 17 -23 -4
-31 0 -43 23 -14 25 -14 32 0 70 14 42 16 43 58 43 l43 0 -1 -67z m234 41 c10
-40 -2 -64 -32 -65 l-27 -2 28 -4 c19 -3 27 -10 27 -24 0 -27 -50 -26 -74 3
-17 19 -17 26 -6 57 17 49 28 61 55 61 16 0 25 -8 29 -26z m104 4 c2 -12 -5
-17 -25 -20 -26 -3 -28 -7 -31 -50 -2 -34 -7 -48 -18 -48 -14 0 -15 6 -15 85
0 25 0 48 0 51 1 3 20 4 43 2 31 -2 44 -8 46 -20z m53 -29 c15 -48 28 -46 47
9 7 23 20 42 28 42 10 0 11 -6 5 -23 -19 -49 -54 -117 -60 -117 -10 1 -61 121
-55 131 9 16 23 0 35 -42z m-356 21 c3 -5 15 -10 25 -10 10 0 21 -4 24 -9 10
-15 -5 -41 -23 -41 -20 0 -51 34 -51 55 0 17 16 20 25 5z"/>
<path d="M206 595 c-13 -34 -6 -45 25 -45 27 0 30 3 27 28 -4 31 -41 44 -52
17z m34 -15 c0 -19 -11 -26 -23 -14 -8 8 3 34 14 34 5 0 9 -9 9 -20z"/>
<path d="M478 603 c7 -3 16 -2 19 1 4 3 -2 6 -13 5 -11 0 -14 -3 -6 -6z"/>
<path d="M806 729 c-18 -30 -18 -33 -2 -44 23 -17 23 -110 -1 -123 -16 -9 -16
-12 0 -36 l17 -26 165 0 165 0 12 26 c10 22 9 27 -5 35 -14 8 -17 25 -17 92 0
88 -8 107 -47 107 -16 0 -25 -8 -30 -27 l-7 -28 -6 25 c-6 23 -10 25 -70 25
l-65 0 -5 -89 c-3 -62 -1 -94 7 -105 18 -23 16 -51 -3 -51 -12 0 -15 6 -10 25
5 18 2 25 -8 25 -12 0 -16 19 -18 98 -3 95 -3 97 -28 100 -19 2 -30 -5 -44
-29z m64 -84 c0 -52 4 -95 9 -95 6 0 9 -9 8 -20 -1 -16 -8 -20 -34 -20 -18 0
-33 2 -33 4 0 2 -3 11 -6 20 -4 11 -1 16 10 16 13 0 16 13 16 76 0 66 -2 75
-16 70 -12 -5 -15 -2 -10 10 3 8 6 20 6 25 0 5 11 9 25 9 25 0 25 0 25 -95z
m170 15 c0 -97 -21 -149 -60 -150 -43 0 -57 55 -51 208 1 20 6 22 56 22 l55 0
0 -80z m81 33 c0 -27 0 -69 -1 -95 -1 -42 1 -48 19 -48 19 0 20 -2 9 -20 -8
-12 -24 -20 -39 -20 -18 0 -28 6 -32 20 -3 13 0 20 9 20 10 0 14 17 13 75 -1
57 -4 75 -15 75 -16 0 -16 2 -8 24 3 9 15 16 25 16 16 0 19 -8 20 -47z m-41
-77 c0 -41 -4 -56 -14 -56 -9 0 -12 -8 -8 -25 3 -18 0 -25 -12 -25 -18 0 -22
35 -6 45 6 3 10 38 10 76 0 63 2 69 15 55 10 -9 15 -34 15 -70z"/>
<path d="M963 703 c-19 -7 -16 -53 2 -53 9 0 18 7 21 15 4 8 10 12 15 9 5 -3
9 0 9 7 0 6 -8 9 -20 6 -11 -3 -20 -1 -20 3 0 5 8 11 18 13 11 3 12 5 2 5 -8
0 -21 -2 -27 -5z"/>
<path d="M1002 625 c0 -16 2 -22 5 -12 2 9 2 23 0 30 -3 6 -5 -1 -5 -18z"/>
<path d="M976 623 c-4 -13 -12 -23 -17 -23 -5 0 -9 -11 -9 -25 0 -20 5 -25 25
-25 14 0 29 8 35 20 8 14 8 20 0 20 -6 0 -13 -7 -16 -15 -4 -8 -10 -15 -15
-15 -13 0 -11 34 2 47 6 6 9 17 7 25 -3 8 -8 5 -12 -9z"/>
<path d="M245 741 c-3 -5 -2 -12 3 -15 5 -3 9 1 9 9 0 17 -3 19 -12 6z"/>
</g>
</svg>
