<?xml version="1.0" encoding="UTF-8"?>
<svg version="1.1" xmlns="http://www.w3.org/2000/svg" width="120" height="120">
<path d="M0 0 C8.25 0 16.5 0 25 0 C25 2.31 25 4.62 25 7 C25.66 7 26.32 7 27 7 C27 4.69 27 2.38 27 0 C35.58 0 44.16 0 53 0 C53 2.31 53 4.62 53 7 C53.66 7 54.32 7 55 7 C55 4.69 55 2.38 55 0 C63.25 0 71.5 0 80 0 C80 2.31 80 4.62 80 7 C80.99 7 81.98 7 83 7 C83 4.69 83 2.38 83 0 C85.64 0 88.28 0 91 0 C91 2.31 91 4.62 91 7 C91.66 7 92.32 7 93 7 C93 14.26 93 21.52 93 29 C93.99 29 94.98 29 96 29 C96 24.38 96 19.76 96 15 C96.66 15 97.32 15 98 15 C98 11.37 98 7.74 98 4 C98.66 4 99.32 4 100 4 C100 2.68 100 1.36 100 0 C102.64 0 105.28 0 108 0 C108 12.87 108 25.74 108 39 C106.68 39.33 105.36 39.66 104 40 C104.165 40.515625 104.33 41.03125 104.5 41.5625 C105.15049 44.73363876 105.0620734 47.77218334 105 51 C105.66 51 106.32 51 107 51 C107.336611 52.77021322 107.66917293 54.54119674 108 56.3125 C108.2784375 57.79169922 108.2784375 57.79169922 108.5625 59.30078125 C109 62 109 62 109 65 C109.66 65 110.32 65 111 65 C111.02683987 67.97922593 111.04676037 70.95821295 111.0625 73.9375 C111.07087891 74.78763672 111.07925781 75.63777344 111.08789062 76.51367188 C111.09111328 77.32255859 111.09433594 78.13144531 111.09765625 78.96484375 C111.10289307 79.7137085 111.10812988 80.46257324 111.11352539 81.23413086 C111 83 111 83 110 84 C108.48071962 84.07179964 106.95832518 84.08392007 105.4375 84.0625 C104.19806641 84.04896484 104.19806641 84.04896484 102.93359375 84.03515625 C101.97646484 84.01775391 101.97646484 84.01775391 101 84 C99.87486367 75.98340366 99.90420616 68.07861415 100 60 C99.01 60 98.02 60 97 60 C97 58.02 97 56.04 97 54 C95.68 54 94.36 54 93 54 C93 63.9 93 73.8 93 84 C62.64 84 32.28 84 1 84 C0.33432527 78.00892745 -0.13464838 72.40793813 -0.0625 66.4375 C-0.041875 63.983125 -0.02125 61.52875 0 59 C5.61 59 11.22 59 17 59 C17 57.35 17 55.7 17 54 C11.72 54 6.44 54 1 54 C0.1465689 47.38221763 -0.13435223 40.94545096 -0.09765625 34.27734375 C-0.0962413 33.29125626 -0.09482635 32.30516876 -0.09336853 31.28919983 C-0.0878177 28.17193432 -0.0752746 25.05474342 -0.0625 21.9375 C-0.05747864 19.81054792 -0.05291685 17.6835947 -0.04882812 15.55664062 C-0.03871975 10.37104261 -0.01913507 5.18560379 0 0 Z M10 25 C10 26.32 10 27.64 10 29 C14.95 29 19.9 29 25 29 C25 31.31 25 33.62 25 36 C25.66 36 26.32 36 27 36 C27 32.37 27 28.74 27 25 C21.39 25 15.78 25 10 25 Z M38 25 C38 26.32 38 27.64 38 29 C40.64 29 43.28 29 46 29 C46 31.31 46 33.62 46 36 C46.66 36 47.32 36 48 36 C48 41.94 48 47.88 48 54 C44.7 54 41.4 54 38 54 C38 55.65 38 57.3 38 59 C42.95 59 47.9 59 53 59 C53 61.31 53 63.62 53 66 C53.66 66 54.32 66 55 66 C55 52.47 55 38.94 55 25 C49.39 25 43.78 25 38 25 Z M66 25 C66 26.32 66 27.64 66 29 C68.31 29.33 70.62 29.66 73 30 C73.33 31.98 73.66 33.96 74 36 C74.66 36 75.32 36 76 36 C76 41.94 76 47.88 76 54 C72.7 54 69.4 54 66 54 C66 55.65 66 57.3 66 59 C70.62 59 75.24 59 80 59 C80 61.31 80 63.62 80 66 C80.99 66 81.98 66 83 66 C83 52.47 83 38.94 83 25 C77.39 25 71.78 25 66 25 Z " fill="#050505" transform="translate(4,8)"/>
<path d="M0 0 C8.25 0 16.5 0 25 0 C25 2.31 25 4.62 25 7 C25.66 7 26.32 7 27 7 C27 4.69 27 2.38 27 0 C27.33 0 27.66 0 28 0 C28.33 27.39 28.66 54.78 29 83 C37.58 83 46.16 83 55 83 C55 83.33 55 83.66 55 84 C37.18 84 19.36 84 1 84 C0.33432527 78.00892745 -0.13464838 72.40793813 -0.0625 66.4375 C-0.041875 63.983125 -0.02125 61.52875 0 59 C5.61 59 11.22 59 17 59 C17 57.35 17 55.7 17 54 C11.72 54 6.44 54 1 54 C0.1465689 47.38221763 -0.13435223 40.94545096 -0.09765625 34.27734375 C-0.0962413 33.29125626 -0.09482635 32.30516876 -0.09336853 31.28919983 C-0.0878177 28.17193432 -0.0752746 25.05474342 -0.0625 21.9375 C-0.05747864 19.81054792 -0.05291685 17.6835947 -0.04882812 15.55664062 C-0.03871975 10.37104261 -0.01913507 5.18560379 0 0 Z M10 25 C10 26.32 10 27.64 10 29 C14.95 29 19.9 29 25 29 C25 31.31 25 33.62 25 36 C25.66 36 26.32 36 27 36 C27 32.37 27 28.74 27 25 C21.39 25 15.78 25 10 25 Z " fill="#181818" transform="translate(4,8)"/>
<path d="M0 0 C2.64 0 5.28 0 8 0 C8 2.31 8 4.62 8 7 C8.66 7 9.32 7 10 7 C10 14.26 10 21.52 10 29 C10.99 29 11.98 29 13 29 C13 24.38 13 19.76 13 15 C13.66 15 14.32 15 15 15 C15 11.37 15 7.74 15 4 C15.66 4 16.32 4 17 4 C17 2.68 17 1.36 17 0 C19.64 0 22.28 0 25 0 C25 12.87 25 25.74 25 39 C23.02 39.495 23.02 39.495 21 40 C21.2475 40.7734375 21.2475 40.7734375 21.5 41.5625 C22.15049 44.73363876 22.0620734 47.77218334 22 51 C22.66 51 23.32 51 24 51 C24.336611 52.77021322 24.66917293 54.54119674 25 56.3125 C25.2784375 57.79169922 25.2784375 57.79169922 25.5625 59.30078125 C26 62 26 62 26 65 C26.66 65 27.32 65 28 65 C28.02683987 67.97922593 28.04676037 70.95821295 28.0625 73.9375 C28.07087891 74.78763672 28.07925781 75.63777344 28.08789062 76.51367188 C28.09111328 77.32255859 28.09433594 78.13144531 28.09765625 78.96484375 C28.10289307 79.7137085 28.10812988 80.46257324 28.11352539 81.23413086 C28 83 28 83 27 84 C25.48071962 84.07179964 23.95832518 84.08392007 22.4375 84.0625 C21.19806641 84.04896484 21.19806641 84.04896484 19.93359375 84.03515625 C18.97646484 84.01775391 18.97646484 84.01775391 18 84 C16.87486367 75.98340366 16.90420616 68.07861415 17 60 C16.01 60 15.02 60 14 60 C14 58.02 14 56.04 14 54 C12.68 54 11.36 54 10 54 C10 63.9 10 73.8 10 84 C-2.21 84 -14.42 84 -27 84 C-27 83.67 -27 83.34 -27 83 C-18.42 83 -9.84 83 -1 83 C-1.495 82.01 -1.495 82.01 -2 81 C-9.59 81 -17.18 81 -25 81 C-25 79.02 -25 77.04 -25 75 C-17.74 75 -10.48 75 -3 75 C-3 73.02 -3 71.04 -3 69 C-2.34 68.01 -1.68 67.02 -1 66 C-0.67508765 64.04479191 -0.67508765 64.04479191 -0.68115234 61.89575195 C-0.66128265 61.07512772 -0.64141296 60.25450348 -0.62094116 59.40901184 C-0.60938995 58.52767075 -0.59783875 57.64632965 -0.5859375 56.73828125 C-0.56657135 55.83248825 -0.5472052 54.92669525 -0.5272522 53.99345398 C-0.46746458 51.09989849 -0.42107432 48.2063032 -0.375 45.3125 C-0.33681946 43.35089409 -0.29776769 41.38930494 -0.2578125 39.42773438 C-0.16176368 34.6186256 -0.07772957 29.80943834 0 25 C-5.61 25 -11.22 25 -17 25 C-17 26.32 -17 27.64 -17 29 C-14.69 29 -12.38 29 -10 29 C-10 29.33 -10 29.66 -10 30 C-12.64 30 -15.28 30 -18 30 C-18 28.02 -18 26.04 -18 24 C-12.39 24 -6.78 24 -1 24 C-1.03923819 18.72052647 -1.03923819 18.72052647 -1.09008789 13.44116211 C-1.1071234 8.85201576 -0.7633742 4.5261478 0 0 Z " fill="#1B1B1B" transform="translate(87,8)"/>
<path d="M0 0 C0.33 0 0.66 0 1 0 C1 3.96 1 7.92 1 12 C-6.59 12 -14.18 12 -22 12 C-22 10.02 -22 8.04 -22 6 C-14.74 6 -7.48 6 0 6 C0 4.02 0 2.04 0 0 Z " fill="#FFFFFF" transform="translate(84,77)"/>
<path d="M0 0 C0.33 0 0.66 0 1 0 C1 3.96 1 7.92 1 12 C-6.26 12 -13.52 12 -21 12 C-21 10.02 -21 8.04 -21 6 C-14.07 6 -7.14 6 0 6 C0 4.02 0 2.04 0 0 Z " fill="#FFFFFF" transform="translate(56,77)"/>
<path d="M0 0 C7.26 0 14.52 0 22 0 C22 1.98 22 3.96 22 6 C14.74 6 7.48 6 0 6 C0 4.02 0 2.04 0 0 Z " fill="#FFFFFF" transform="translate(7,83)"/>
<path d="M0 0 C0.33 0 0.66 0 1 0 C1 3.96 1 7.92 1 12 C-4.61 12 -10.22 12 -16 12 C-16 14.64 -16 17.28 -16 20 C-16.33 20 -16.66 20 -17 20 C-17 15.38 -17 10.76 -17 6 C-11.39 6 -5.78 6 0 6 C0 4.02 0 2.04 0 0 Z " fill="#FFFFFF" transform="translate(56,18)"/>
<path d="M0 0 C5.94 0 11.88 0 18 0 C18 1.98 18 3.96 18 6 C12.39 6 6.78 6 1 6 C1 8.64 1 11.28 1 14 C0.67 14 0.34 14 0 14 C0 9.38 0 4.76 0 0 Z " fill="#FFFFFF" transform="translate(11,24)"/>
<path d="M0 0 C0.33 0 0.66 0 1 0 C1 3.96 1 7.92 1 12 C-4.94 12 -10.88 12 -17 12 C-17 10.02 -17 8.04 -17 6 C-11.39 6 -5.78 6 0 6 C0 4.02 0 2.04 0 0 Z " fill="#FFFFFF" transform="translate(84,18)"/>
<path d="M0 0 C2.31 0 4.62 0 7 0 C7 1.98 7 3.96 7 6 C5.02 6 3.04 6 1 6 C1 15.9 1 25.8 1 36 C-0.65 36 -2.3 36 -4 36 C-4 34.02 -4 32.04 -4 30 C-2.68 30 -1.36 30 0 30 C0 20.1 0 10.2 0 0 Z " fill="#FFFFFF" transform="translate(94,53)"/>
<path d="M0 0 C4.62 0 9.24 0 14 0 C14 1.98 14 3.96 14 6 C9.38 6 4.76 6 0 6 C0 4.02 0 2.04 0 0 Z " fill="#FFFFFF" transform="translate(7,53)"/>
<path d="M0 0 C0.33 0 0.66 0 1 0 C1 4.62 1 9.24 1 14 C0.67 13.34 0.34 12.68 0 12 C-2.97 12 -5.94 12 -9 12 C-9 14.64 -9 17.28 -9 20 C-9.33 20 -9.66 20 -10 20 C-10 15.38 -10 10.76 -10 6 C-6.7 6 -3.4 6 0 6 C0 4.02 0 2.04 0 0 Z " fill="#FFFFFF" transform="translate(49,47)"/>
<path d="M0 0 C0.33 0 0.66 0 1 0 C1 3.96 1 7.92 1 12 C-2.63 12 -6.26 12 -10 12 C-10 10.02 -10 8.04 -10 6 C-6.7 6 -3.4 6 0 6 C0 4.02 0 2.04 0 0 Z " fill="#FFFFFF" transform="translate(77,47)"/>
<path d="M0 0 C1.65 0 3.3 0 5 0 C5 1.98 5 3.96 5 6 C3.35 6 1.7 6 0 6 C0 4.02 0 2.04 0 0 Z " fill="#FFFFFF" transform="translate(107,83)"/>
</svg>
